<svg width="24" height="25" fill="none" viewBox="0 0 24 25"><path fill="#3E63DD" d="M6.3 20.1c-.4-.3-1-.2-1.7.5-1 .9-1 1.2-.1 1.2.7 0 2.3-1.4 1.8-1.7ZM6.3 18.4c0-.3-1-.6-1.4-.4-.6.2-4.3 3.1-4.6 3.2-.6.3.4.8 1.1.6a25 25 0 0 0 4.9-3.4ZM3.3 7.6c.7 0 1-.2.5-.6-1-.8-1.7-1.1-2.3-.9-.7.3.7 1.5 1.8 1.5ZM15.5 8.8c.6 0 1.7-.7 1.6-1-.1-.6-1.3-.6-2 0-.6.6-.5 1 .4 1ZM5.6 7.3c1 .2 1-.3-.3-2C2.9 1.8 2 1 1.6 1.2c-.8.3 3 5.8 4 6ZM21.6 5.8c-.6.2-4.4 2.7-5.3 3.5-.3.1.5.4 1 .4s.7-.2 2.9-1.6l2.6-1.7c.8-.5-.3-1-1.2-.6ZM17.4 19.3c-.6-.5-1.4-.8-1.6-.6-.1.1.2.5.7.8.9.5 1.5.3.9-.2Z"/><path fill="#3E63DD" d="M16 13.6c.5-.3.5-.4-.2-1-2-2-3.6-6.4-4-10.7 0-1.6-1.5-3-2.3.7-1 4.7-3.3 9.5-4.9 10-1 .3-.9 1 .2 1 1.6 0 2.6 1.5 3.2 4.8l1.2 5.8c.2.4 1.6 1 2-1.7.5-4 2.6-7.8 4.7-8.9Zm-1.9-.5a11 11 0 0 0-3.9 5.5c0 .4-.2.3-.3-.2-.4-2.6-1.3-4.2-2.7-5l-.6-.4c1.5-1.6 2.2-2.1 4-7 0-.3 0-.2.4 1 .7 2.4 1.6 4.2 2.7 5.3.6.7.6.7.4.8ZM14 19.5c-.4.2-.3.3.6 1.5 1.6 2 2.4 2.5 2.9 2 .2-.2.1-.4-1-1.9-1.4-1.7-2-2-2.6-1.6Z"/></svg>